<svg width="240" height="240" viewBox="0 0 240 240" fill="none" xmlns="http://www.w3.org/2000/svg" role="img" aria-labelledby="title desc">
  <title id="title">Harmonic Touch mark</title>
  <desc id="desc">A hexagonal gold frame around a blue and cream spiral flower.</desc>
  <rect width="240" height="240" rx="24" fill="#0F1210"/>
  <path d="M120 15L210.93 67.5V172.5L120 225L29.0673 172.5V67.5L120 15Z" stroke="#D8A24A" stroke-width="4"/>
  <path d="M120 31L197.067 75.5V164.5L120 209L42.9334 164.5V75.5L120 31Z" stroke="#F2DCA8" stroke-width="1.5" opacity=".72"/>
  <circle cx="120" cy="120" r="70" fill="#1F5F79" opacity=".22" stroke="#9E6E27" stroke-width="2"/>
  <g filter="url(#shadow)">
    <path d="M119.8 116.6C122.4 90.1 137.8 64.8 163.2 52.7C174.4 78.6 169.3 107.3 149.5 126.6C141.3 120.8 131.9 117.6 119.8 116.6Z" fill="#F8F0DD" stroke="#D8A24A" stroke-width="2"/>
    <path d="M124.8 119.2C148.7 106.8 179.2 105.9 202.1 122.2C184.7 144.4 157.1 153.2 131 144C130.3 133.9 128.3 125.4 124.8 119.2Z" fill="#2C7895" stroke="#D8A24A" stroke-width="2"/>
    <path d="M123.4 124.4C149.9 127 175.2 142.4 187.3 167.8C161.4 179 132.7 173.9 113.4 154.1C119.2 145.9 122.4 136.5 123.4 124.4Z" fill="#F8F0DD" stroke="#D8A24A" stroke-width="2"/>
    <path d="M120.8 129.4C133.2 153.3 134.1 183.8 117.8 206.7C95.6 189.3 86.8 161.7 96 135.6C106.1 134.9 114.6 132.9 120.8 129.4Z" fill="#2C7895" stroke="#D8A24A" stroke-width="2"/>
    <path d="M115.6 128C113 154.5 97.6 179.8 72.2 191.9C61 166 66.1 137.3 85.9 118C94.1 123.8 103.5 127 115.6 128Z" fill="#F8F0DD" stroke="#D8A24A" stroke-width="2"/>
    <path d="M110.6 125.4C86.7 137.8 56.2 138.7 33.3 122.4C50.7 100.2 78.3 91.4 104.4 100.6C105.1 110.7 107.1 119.2 110.6 125.4Z" fill="#2C7895" stroke="#D8A24A" stroke-width="2"/>
    <path d="M112 120.2C85.5 117.6 60.2 102.2 48.1 76.8C74 65.6 102.7 70.7 122 90.5C116.2 98.7 113 108.1 112 120.2Z" fill="#F8F0DD" stroke="#D8A24A" stroke-width="2"/>
    <path d="M114.6 115.2C102.2 91.3 101.3 60.8 117.6 37.9C139.8 55.3 148.6 82.9 139.4 109C129.3 109.7 120.8 111.7 114.6 115.2Z" fill="#2C7895" stroke="#D8A24A" stroke-width="2"/>
  </g>
  <circle cx="118" cy="122" r="19" fill="#111714" stroke="#F0C771" stroke-width="3"/>
  <path d="M103 121C109 105 132 106 136 121C137 132 124 139 116 132C110 126 117 115 126 120" stroke="#F8F0DD" stroke-width="3" stroke-linecap="round"/>
  <defs>
    <filter id="shadow" x="20" y="25" width="195" height="195" filterUnits="userSpaceOnUse" color-interpolation-filters="sRGB">
      <feDropShadow dx="0" dy="10" stdDeviation="8" flood-color="#000000" flood-opacity=".35"/>
    </filter>
  </defs>
</svg>
